<?xml version="1.0" standalone="no"?>
<!DOCTYPE svg PUBLIC "-//W3C//DTD SVG 20010904//EN"
 "http://www.w3.org/TR/2001/REC-SVG-20010904/DTD/svg10.dtd">
<svg version="1.0" xmlns="http://www.w3.org/2000/svg"
 width="968.000000pt" height="968.000000pt" viewBox="0 0 968.000000 968.000000"
 preserveAspectRatio="xMidYMid meet">
<metadata>
Created by potrace 1.14, written by Peter Selinger 2001-2017
</metadata>
<g transform="translate(0.000000,968.000000) scale(0.100000,-0.100000)"
fill="#000000" stroke="none">
<path d="M1895 9619 c-848 -89 -1577 -718 -1785 -1538 -69 -272 -63 -2 -67
-3176 -3 -2083 -1 -2902 7 -2985 79 -803 597 -1477 1352 -1759 121 -45 262
-81 418 -108 99 -16 276 -18 2920 -21 1998 -2 2858 0 2965 8 495 37 936 230
1284 565 376 361 595 813 641 1325 8 90 10 921 7 2985 -4 3162 2 2896 -66
3164 -114 444 -388 853 -762 1134 -259 196 -550 323 -889 389 l-115 22 -2915
2 c-1603 1 -2951 -2 -2995 -7z m2933 -2971 c17 -17 17 -3639 0 -3656 -9 -9
-81 -12 -265 -12 -239 0 -253 1 -263 19 -7 13 -10 295 -10 845 0 806 0 826
-19 836 -11 5 -79 10 -151 10 -72 0 -140 -5 -151 -10 -19 -10 -19 -30 -19
-810 0 -713 -2 -800 -16 -814 -13 -14 -51 -16 -263 -16 -179 0 -250 3 -259 12
-17 17 -17 3559 0 3576 9 9 80 12 259 12 212 0 250 -2 263 -16 14 -14 16 -90
16 -684 0 -651 1 -670 19 -680 26 -13 276 -13 302 0 18 10 19 29 19 686 0 446
4 682 10 695 10 18 24 19 263 19 184 0 256 -3 265 -12z m3330 0 c9 -9 12 -422
12 -1799 0 -983 -3 -1794 -6 -1803 -6 -15 -145 -16 -1474 -16 -1329 0 -1468 1
-1474 16 -3 9 -6 377 -6 818 0 610 3 805 12 814 9 9 82 12 268 12 186 0 259
-3 268 -12 8 -8 12 -64 12 -185 0 -160 1 -173 19 -183 30 -16 1783 -14 1799 2
9 9 12 281 12 1164 0 1034 2 1154 16 1168 13 14 52 16 273 16 186 0 260 -3
269 -12z m-808 -97 c14 -26 14 -466 0 -492 -10 -18 -26 -19 -413 -19 -221 0
-408 -4 -415 -9 -7 -4 -21 -49 -31 -98 -11 -50 -22 -100 -25 -110 -3 -11 0
-26 6 -35 7 -9 229 -147 493 -308 264 -161 488 -300 498 -308 10 -9 17 -25 15
-37 -2 -11 -57 -112 -123 -223 -99 -167 -123 -202 -142 -202 -19 0 -209 115
-809 491 -77 49 -148 91 -158 95 -13 5 -32 -9 -74 -57 -189 -213 -379 -347
-630 -444 -177 -68 -481 -125 -516 -96 -14 12 -16 49 -16 261 0 195 3 250 13
259 8 6 54 18 102 26 319 56 574 236 707 500 36 71 88 221 88 255 0 16 -7 30
-16 34 -9 3 -197 6 -419 6 -354 0 -406 2 -419 16 -14 13 -16 50 -16 245 0 140
4 238 10 250 10 19 34 19 1145 19 1111 0 1135 0 1145 -19z m-5192 -23 c9 -9
12 -333 12 -1395 l0 -1382 22 -12 c30 -16 453 -4 596 16 161 23 310 60 422
104 78 30 108 38 122 30 17 -9 18 -27 18 -269 l0 -260 -47 -24 c-123 -62 -345
-113 -583 -135 -166 -16 -1082 -15 -1098 1 -17 17 -17 3309 0 3326 9 9 82 12
268 12 186 0 259 -3 268 -12z"/>
<path d="M5782 3778 c-8 -8 -12 -48 -12 -113 0 -65 4 -105 12 -113 17 -17
1799 -17 1816 0 8 8 12 48 12 113 0 65 -4 105 -12 113 -17 17 -1799 17 -1816
0z"/>
</g>
</svg>
