<svg width="131" height="38" viewBox="0 0 131 38" fill="none" xmlns="http://www.w3.org/2000/svg">
<path d="M27.7009 0.5H27.2009V1V14.5984H22.9064V1.20492V0.704918H22.4064H18.826H18.326V1.20492V35.3852V35.8852H18.826H22.4064H22.9064V35.3852V19.4098H27.2009V36V36.5H27.7009H31.2813H31.7813V36V1V0.5H31.2813H27.7009ZM8.88457 29.8033H5.1947V2.18853V1.68853H4.6947H1H0.5V2.18853V33.9098V34.4098H1H8.46558C11.4277 34.4098 14.6359 33.9573 16.6749 33.0109L16.9644 32.8765V32.5574V28.9508V28.2028L16.2732 28.4888C14.3633 29.2792 11.6114 29.8033 8.88457 29.8033ZM59.3072 18.1311V18.6311H59.8072H63.5781H64.0781V18.1311V1V0.5H63.5781H59.8072H59.3072V1V18.1311ZM35.9202 35.5492V36.0492H36.4202H64.378H64.878V35.5492V32.3525V31.8525H64.378H40.6529V29.8197H63.5781H64.0781V29.3197V20.0574V19.5574H63.5781H36.344H35.844V20.0574V23.2541V23.7541H36.344H59.3453V25.7869H36.4202H35.9202V26.2869V35.5492ZM92.6324 36V36.5H93.1324H96.9033H97.4033V36V1V0.5H96.9033H93.1324H92.6324V1V36ZM65.9316 33.9098V34.4098H66.4316H79.4963C84.1976 34.4098 88.3318 33.7967 90.6103 32.6784L90.89 32.5411V32.2295V28.459V27.6494L90.1661 28.012C88.0691 29.0623 84.1724 29.5984 79.7249 29.5984H66.4316H65.9316V30.0984V33.9098ZM126.229 0.5H125.729V1V19.1967V19.6967H126.229H130H130.5V19.1967V1V0.5H130H126.229ZM123.253 15.0412L113.384 8.97882C113.699 7.99177 113.914 6.93349 114.01 5.84426H121.925H122.425V5.34426V1.90164V1.40164H121.925H100.861H100.361V1.90164V5.34426V5.84426H100.861H109.175C108.522 10.5888 105.314 14.0097 100.371 14.7265L99.9424 14.7886V15.2213V18.8279V19.3817L100.493 19.3253C105.254 18.8375 109.09 16.5048 111.485 12.995L120.936 18.9236L121.371 19.1965L121.632 18.7542L123.422 15.7214L123.672 15.2983L123.253 15.0412ZM125.805 20.7131V24.1066H106.618V20.7131V20.2131H106.118H102.423H101.923V20.7131V35.5492V36.0492H102.423H130H130.5V35.5492V20.7131V20.2131H130H126.305H125.805V20.7131ZM43.9238 18.1803C47.0242 18.1803 49.6574 17.3039 51.5255 15.7719C53.4005 14.2343 54.4795 12.0546 54.4795 9.52459C54.4795 6.99456 53.4005 4.8149 51.5255 3.27731C49.6574 1.74528 47.0242 0.868853 43.9238 0.868853C40.8235 0.868853 38.1814 1.74521 36.3041 3.27648C34.42 4.81329 33.3301 6.99291 33.3301 9.52459C33.3301 12.0563 34.42 14.2359 36.3041 15.7727C38.1814 17.304 40.8235 18.1803 43.9238 18.1803ZM43.9238 13.9016C42.1381 13.9016 40.6619 13.4404 39.6453 12.671C38.6396 11.9099 38.0628 10.8349 38.0628 9.52459C38.0628 8.21423 38.6396 7.13931 39.6453 6.3782C40.6619 5.60877 42.1381 5.14754 43.9238 5.14754C45.7095 5.14754 47.1752 5.60871 48.1817 6.37696C49.1771 7.13677 49.7467 8.21152 49.7467 9.52459C49.7467 10.8377 49.1771 11.9124 48.1817 12.6722C47.1752 13.4405 45.7095 13.9016 43.9238 13.9016ZM77.5918 24.2869C83.7343 24.2869 88.1475 19.5145 88.1475 12.7623C88.1475 6.01005 83.7343 1.23771 77.5918 1.23771C74.5244 1.23771 71.8749 2.41949 69.9958 4.4684C68.1193 6.51446 67.0362 9.39662 67.0362 12.7623C67.0362 16.128 68.1193 19.0101 69.9958 21.0562C71.8749 23.1051 74.5244 24.2869 77.5918 24.2869ZM77.5918 19.5984C75.796 19.5984 74.346 18.874 73.3369 17.6758C72.3213 16.4702 71.7309 14.7568 71.7309 12.7623C71.7309 10.7676 72.3215 9.04322 73.3381 7.82678C74.3482 6.6181 75.7982 5.88525 77.5918 5.88525C79.3653 5.88525 80.8162 6.61733 81.832 7.8276C82.8537 9.04491 83.4528 10.7695 83.4528 12.7623C83.4528 14.7549 82.8539 16.4685 81.8332 17.675C80.8184 18.8747 79.3676 19.5984 77.5918 19.5984ZM106.618 31.7295V28.3852H125.805V31.7295H106.618Z" fill="#191A20" stroke="black"/>
</svg>
